# 3ds Max Wavefront OBJ Exporter v0.97b - (c)2007 guruware
# File Created: 31.03.2019 18:34:36

mtllib model.mtl

#
# object solid
#

v  1.0 0.9717215389559171 0.520694107680173
v  1.0 0.9417043031170578 0.520694107680173
v  0.9905769624025005 0.9417043031170578 -0.5384055388390641
v  0.9905769624025005 0.9717215389559171 -0.5384055388390641
v  -1.0 0.9417043031170578 -0.520694107680173
v  -1.0 0.9717215389559171 -0.520694107680173
v  -0.9905769624025007 0.9417043031170578 0.5384055388390641
v  -0.9905769624025007 0.9717215389559171 0.5384055388390641
v  0.9824696912155648 0.9335245829803396 -0.5301533697525636
v  0.9897987204580645 0.9335245829803396 0.29350705500861807
v  -0.984418801671 0.9335245829803396 0.31107241973649624
v  -0.9917478309134996 0.9335245829803396 -0.5125880050246853
v  0.9824696912155648 0.9799012590926355 -0.5301533697525636
v  -0.9917478309134996 0.9799012590926355 -0.5125880050246853
v  -0.9824696912155649 0.9799012590926355 0.5301533697525636
v  0.9917478309134995 0.9799012590926355 0.5125880050246854
v  0.9937600420671322 0.934350734714148 0.5145651602348749
v  0.9844468464257545 0.934350734714148 -0.5321655809061963
v  0.9897578218573808 0.9397084514036984 -0.5375723759165669
v  0.9991656685460548 0.9397084514036984 0.5198761356665014
v  0.9844468464257545 0.9790751073588266 -0.5321655809061963
v  0.9937600420671322 0.9790751073588266 0.5145651602348749
v  0.9991656685460548 0.9737162221378284 0.5198761356665014
v  0.9897578218573808 0.9737162221378284 -0.5375723759165669
v  -0.9937600420671321 0.934350734714148 -0.5145651602348749
v  -0.9991656685460549 0.9397084514036984 -0.5198761356665011
v  -0.9937600420671321 0.9790751073588266 -0.5145651602348749
v  -0.9991656685460549 0.9737162221378284 -0.5198761356665011
v  -0.9844468464257545 0.934350734714148 0.5321655809061963
v  -0.9910934533025619 0.9397084514036984 0.38747100581344407
v  -0.9844468464257545 0.9790751073588266 0.5321655809061963
v  -0.9897578218573807 0.9737162221378284 0.5375723759165667
v  0.9999532587420759 0.9134258420729748 0.5154929742046683
v  0.9999532587420759 0.8867237299523825 0.5154929742046683
v  0.9905769624025005 0.8867237299523825 -0.5384055388390641
v  0.9905769624025005 0.9134258420729748 -0.5384055388390641
v  -1.0 0.8867237299523825 -0.520694107680173
v  -1.0 0.9134258420729748 -0.520694107680173
v  -0.9906225351289767 0.8867237299523825 0.5332032368321113
v  -0.9906225351289767 0.9134258420729748 0.5332032368321113
v  0.9813116765504952 0.9335245829803396 -0.528974321521428
v  -0.9905687826823639 0.9335245829803396 -0.5114299903596156
v  -0.9813584178084194 0.9335245829803396 0.5237731880459233
v  0.9905220414244398 0.9335245829803396 0.5062276883526629
v  0.9894189477374309 0.9145943735210773 -0.5372264906079285
v  0.9813116765504952 0.9145943735210773 -0.528974321521428
v  0.9905220414244398 0.9145943735210773 0.5062276883526629
v  0.9987742105109403 0.9145943735210773 0.5143349595395987
v  -0.9988209517688645 0.9145943735210773 -0.5195360930151033
v  -0.9905687826823639 0.9145943735210773 -0.5114299903596156
v  -0.9894645204639071 0.9145943735210773 0.532025357132424
v  -0.9813584178084194 0.9145943735210773 0.5237731880459233
v  -0.8747848441471182 0.0 0.4185247290467704
v  -0.873746019689755 0.0 0.5353731997312379
v  -0.9905944903742222 0.0 0.5364120241886012
v  -0.9916333148315856 0.0 0.41956355350413355
v  -0.9905944903742222 0.8867237299523825 0.5364120241886012
v  -0.873746019689755 0.8867237299523825 0.5353731997312379
v  -0.8747848441471182 0.8867237299523825 0.4185247290467704
v  -0.9916333148315856 0.8867237299523825 0.41956355350413355
v  0.9989424790394672 0.0 0.40185329087669075
v  0.9999824720282786 0.0 0.518701761561158
v  0.8831340013438114 0.0 0.5197417545499694
v  0.882094008355 0.0 0.40289328386550216
v  0.8831340013438114 0.8867237299523825 0.5197417545499694
v  0.9999824720282786 0.8867237299523825 0.518701761561158
v  0.9989424790394672 0.8867237299523825 0.40185329087669075
v  0.882094008355 0.8867237299523825 0.40289328386550216
v  0.9905769624025005 0.0 -0.5384055388390641
v  0.9916169553913119 0.0 -0.4215570681545968
v  0.8747684847068447 0.0 -0.4205170751657854
v  0.8737284917180332 0.0 -0.5373655458502528
v  0.8747684847068447 0.8867237299523825 -0.4205170751657854
v  0.9916169553913119 0.8867237299523825 -0.4215570681545968
v  0.8737284917180332 0.8867237299523825 -0.5373655458502528
v  -0.8831503607840846 0.0 -0.5217341006689842
v  -0.8821103677952733 0.0 -0.40488562998451694
v  -0.9989588384797407 0.0 -0.40384563699570575
v  -0.9999988314685518 0.0 -0.520694107680173
v  -0.9989588384797407 0.8867237299523825 -0.40384563699570575
v  -0.8821103677952733 0.8867237299523825 -0.40488562998451694
v  -0.8831503607840846 0.8867237299523825 -0.5217341006689842
v  -0.9999988314685518 0.8867237299523825 -0.520694107680173
# 83 vertices

vn 0.6932 0.2361 0.6810
vn 0.8582 -0.1467 0.4920
vn 0.6810 -0.2361 -0.6932
vn 0.6810 0.2361 -0.6932
vn -0.6932 -0.2361 -0.6810
vn -0.6932 0.2361 -0.6810
vn -0.7038 -0.0025 0.7104
vn -0.6810 0.2361 0.6932
vn 0.1468 -0.9778 -0.1495
vn 0.1945 -0.9809 -0.0008
vn -0.1945 -0.9809 0.0027
vn -0.1494 -0.9778 -0.1468
vn 0.1468 0.9778 -0.1495
vn -0.1494 0.9778 -0.1468
vn -0.1468 0.9778 0.1495
vn 0.1494 0.9778 0.1468
vn 0.4452 -0.8954 -0.0023
vn 0.3472 -0.8687 -0.3534
vn 0.5438 -0.6308 -0.5536
vn 0.8669 -0.4983 -0.0077
vn 0.3472 0.8687 -0.3534
vn 0.3534 0.8687 0.3472
vn 0.5535 0.6308 0.5438
vn 0.5438 0.6308 -0.5536
vn -0.3534 -0.8687 -0.3472
vn -0.5536 -0.6308 -0.5438
vn -0.3534 0.8687 -0.3472
vn -0.5536 0.6308 -0.5438
vn -0.0253 -0.9997 0.0039
vn -0.8321 -0.5545 0.0074
vn -0.3472 0.8687 0.3534
vn -0.5438 0.6308 0.5536
vn 0.0064 -0.6642 0.7475
vn -0.0025 0.9993 0.0371
vn -0.0025 0.9992 0.0389
vn 0.0063 -0.7071 0.7071
vn 0.0001 -0.9999 0.0140
vn -0.0620 -0.3567 0.9321
vn -0.0605 -0.4106 0.9098
vn 0.0001 -0.9999 0.0132
vn 1.0000 0.0000 -0.0089
vn -0.0089 0.0000 -1.0000
vn -1.0000 0.0000 0.0089
vn 0.0089 0.0000 1.0000
vn 0.0000 -1.0000 -0.0000
vn 0.0000 1.0000 -0.0000
vn 0.7071 0.7071 -0.0063
vn -0.0063 0.7071 -0.7071
vn -0.7071 0.7071 0.0063
vn 0.0063 0.7071 0.7071
# 50 vertex normals

vt 0.7646 0.8116 0.0000
vt 0.7646 0.8191 0.0000
vt 0.5019 0.8191 0.0000
vt 0.5019 0.8116 0.0000
vt 0.9957 0.7390 0.0000
vt 0.9957 0.7465 0.0000
vt 0.5019 0.7465 0.0000
vt 0.5019 0.7390 0.0000
vt 0.9920 0.7026 0.0000
vt 0.9920 0.7100 0.0000
vt 0.7293 0.7100 0.0000
vt 0.7293 0.7026 0.0000
vt 0.9957 0.7531 0.0000
vt 0.9957 0.7605 0.0000
vt 0.5019 0.7605 0.0000
vt 0.5019 0.7531 0.0000
vt 0.5065 0.2655 0.0000
vt 0.5047 0.0612 0.0000
vt 0.9943 0.0568 0.0000
vt 0.9962 0.2611 0.0000
vt 0.0048 0.5466 0.0000
vt 0.4945 0.5510 0.0000
vt 0.4922 0.8096 0.0000
vt 0.0025 0.8053 0.0000
vt 0.7629 0.8733 0.0000
vt 0.5033 0.8733 0.0000
vt 0.5019 0.8714 0.0000
vt 0.7642 0.8714 0.0000
vt 0.7307 0.7284 0.0000
vt 0.9903 0.7284 0.0000
vt 0.9916 0.7302 0.0000
vt 0.7293 0.7302 0.0000
vt 0.5060 0.2660 0.0000
vt 0.9967 0.2616 0.0000
vt 0.9980 0.2630 0.0000
vt 0.5047 0.2673 0.0000
vt 0.4950 0.5505 0.0000
vt 0.0043 0.5461 0.0000
vt 0.0030 0.5448 0.0000
vt 0.4963 0.5492 0.0000
vt 0.7616 0.8882 0.0000
vt 0.5019 0.8882 0.0000
vt 0.5378 0.8863 0.0000
vt 0.7629 0.8863 0.0000
vt 0.5033 0.8789 0.0000
vt 0.7629 0.8789 0.0000
vt 0.7642 0.8808 0.0000
vt 0.5019 0.8808 0.0000
vt 0.5019 0.6034 0.0000
vt 0.9964 0.5878 0.0000
vt 0.9935 0.6236 0.0000
vt 0.5033 0.6021 0.0000
vt 0.5033 0.8374 0.0000
vt 0.9940 0.8374 0.0000
vt 0.9953 0.8392 0.0000
vt 0.5019 0.8392 0.0000
vt 0.7644 0.8195 0.0000
vt 0.5021 0.8195 0.0000
vt 0.5021 0.8111 0.0000
vt 0.7644 0.8111 0.0000
vt 0.9955 0.7470 0.0000
vt 0.5021 0.7470 0.0000
vt 0.5021 0.7385 0.0000
vt 0.9955 0.7385 0.0000
vt 0.9918 0.7105 0.0000
vt 0.7668 0.7105 0.0000
vt 0.7295 0.7021 0.0000
vt 0.9918 0.7021 0.0000
vt 0.9958 0.5822 0.0000
vt 0.5021 0.5494 0.0000
vt 0.5019 0.5492 0.0000
vt 0.9957 0.5448 0.0000
vt 0.5021 0.7526 0.0000
vt 0.9955 0.7526 0.0000
vt 0.5037 0.0064 0.0000
vt 0.0020 0.8058 0.0000
vt 0.9943 0.0020 0.0000
vt 0.4927 0.8101 0.0000
vt 0.7633 0.8251 0.0000
vt 0.7633 0.8318 0.0000
vt 0.5019 0.8318 0.0000
vt 0.5019 0.8251 0.0000
vt 0.9957 0.7661 0.0000
vt 0.9957 0.7727 0.0000
vt 0.5019 0.7727 0.0000
vt 0.5019 0.7661 0.0000
vt 0.9907 0.7161 0.0000
vt 0.9907 0.7228 0.0000
vt 0.7293 0.7228 0.0000
vt 0.7293 0.7161 0.0000
vt 0.9957 0.7783 0.0000
vt 0.9957 0.7849 0.0000
vt 0.5019 0.7849 0.0000
vt 0.5019 0.7783 0.0000
vt 0.0043 0.2678 0.0000
vt 0.0020 0.0064 0.0000
vt 0.4957 0.0020 0.0000
vt 0.4981 0.2634 0.0000
vt 0.5057 0.2734 0.0000
vt 0.9948 0.2777 0.0000
vt 0.9925 0.5345 0.0000
vt 0.5034 0.5302 0.0000
vt 0.0046 0.2737 0.0000
vt 0.0066 0.2757 0.0000
vt 0.0043 0.5325 0.0000
vt 0.0023 0.5345 0.0000
vt 0.4978 0.2781 0.0000
vt 0.4957 0.2801 0.0000
vt 0.4955 0.5389 0.0000
vt 0.4935 0.5369 0.0000
vt 0.5019 0.8598 0.0000
vt 0.5019 0.8551 0.0000
vt 0.7587 0.8551 0.0000
vt 0.7587 0.8598 0.0000
vt 0.5019 0.7952 0.0000
vt 0.5019 0.7905 0.0000
vt 0.9910 0.7905 0.0000
vt 0.9910 0.7952 0.0000
vt 0.5019 0.8495 0.0000
vt 0.5019 0.8448 0.0000
vt 0.7587 0.8448 0.0000
vt 0.7587 0.8495 0.0000
vt 0.5019 0.8055 0.0000
vt 0.5019 0.8008 0.0000
vt 0.9910 0.8008 0.0000
vt 0.9910 0.8055 0.0000
vt 0.0020 0.5348 0.0000
vt 0.0043 0.2734 0.0000
vt 0.9957 0.8658 0.0000
vt 0.5019 0.8658 0.0000
vt 0.5022 0.8654 0.0000
vt 0.9954 0.8654 0.0000
vt 0.7945 0.8942 0.0000
vt 0.5330 0.8942 0.0000
vt 0.5333 0.8938 0.0000
vt 0.7942 0.8938 0.0000
vt 0.4957 0.5392 0.0000
vt 0.3245 0.9250 0.0000
vt 0.3248 0.9540 0.0000
vt 0.2958 0.9543 0.0000
vt 0.2955 0.9253 0.0000
vt 0.9570 0.6657 0.0000
vt 0.9860 0.6659 0.0000
vt 0.9857 0.6949 0.0000
vt 0.9567 0.6947 0.0000
vt 0.0311 0.4351 0.0000
vt 0.2511 0.4351 0.0000
vt 0.2511 0.4641 0.0000
vt 0.0311 0.4641 0.0000
vt 0.2530 0.4043 0.0000
vt 0.4729 0.4043 0.0000
vt 0.4729 0.4333 0.0000
vt 0.2530 0.4333 0.0000
vt 0.5019 0.6292 0.0000
vt 0.7219 0.6292 0.0000
vt 0.7219 0.6582 0.0000
vt 0.5019 0.6582 0.0000
vt 0.5019 0.6657 0.0000
vt 0.7219 0.6657 0.0000
vt 0.7219 0.6947 0.0000
vt 0.5019 0.6947 0.0000
vt 0.2934 0.9250 0.0000
vt 0.2937 0.9540 0.0000
vt 0.2647 0.9543 0.0000
vt 0.2644 0.9253 0.0000
vt 0.9570 0.6292 0.0000
vt 0.9860 0.6295 0.0000
vt 0.9857 0.6585 0.0000
vt 0.9567 0.6582 0.0000
vt 0.0311 0.4968 0.0000
vt 0.2511 0.4968 0.0000
vt 0.2511 0.5258 0.0000
vt 0.0311 0.5258 0.0000
vt 0.2644 0.8886 0.0000
vt 0.4844 0.8886 0.0000
vt 0.4844 0.9176 0.0000
vt 0.2644 0.9176 0.0000
vt 0.0311 0.4660 0.0000
vt 0.2511 0.4660 0.0000
vt 0.2511 0.4950 0.0000
vt 0.0311 0.4950 0.0000
vt 0.7293 0.6292 0.0000
vt 0.9493 0.6292 0.0000
vt 0.9493 0.6582 0.0000
vt 0.7293 0.6582 0.0000
vt 0.5309 0.9249 0.0000
vt 0.5312 0.9539 0.0000
vt 0.5022 0.9542 0.0000
vt 0.5019 0.9252 0.0000
vt 0.2647 0.9562 0.0000
vt 0.2937 0.9564 0.0000
vt 0.2934 0.9854 0.0000
vt 0.2644 0.9851 0.0000
vt 0.2644 0.8157 0.0000
vt 0.4844 0.8157 0.0000
vt 0.4844 0.8447 0.0000
vt 0.2644 0.8447 0.0000
vt 0.7293 0.6657 0.0000
vt 0.9493 0.6657 0.0000
vt 0.9493 0.6947 0.0000
vt 0.7293 0.6947 0.0000
vt 0.0020 0.9637 0.0000
vt 0.2219 0.9637 0.0000
vt 0.2219 0.9927 0.0000
vt 0.0020 0.9927 0.0000
vt 0.5019 0.7021 0.0000
vt 0.7219 0.7021 0.0000
vt 0.7219 0.7311 0.0000
vt 0.5019 0.7311 0.0000
vt 0.5309 0.8938 0.0000
vt 0.5312 0.9228 0.0000
vt 0.5022 0.9231 0.0000
vt 0.5019 0.8941 0.0000
vt 0.2297 0.9637 0.0000
vt 0.2586 0.9639 0.0000
vt 0.2584 0.9929 0.0000
vt 0.2294 0.9927 0.0000
vt 0.2530 0.4968 0.0000
vt 0.4729 0.4968 0.0000
vt 0.4729 0.5258 0.0000
vt 0.2530 0.5258 0.0000
vt 0.2644 0.8522 0.0000
vt 0.4844 0.8522 0.0000
vt 0.4844 0.8812 0.0000
vt 0.2644 0.8812 0.0000
vt 0.2530 0.4660 0.0000
vt 0.4729 0.4660 0.0000
vt 0.4729 0.4950 0.0000
vt 0.2530 0.4950 0.0000
vt 0.2530 0.4351 0.0000
vt 0.4729 0.4351 0.0000
vt 0.4729 0.4641 0.0000
vt 0.2530 0.4641 0.0000
# 233 texture coords

o solid
g solid
usemtl solid_wire
s 1
f 1/1/1 2/2/2 3/3/3 
f 3/3/3 4/4/4 1/1/1 
f 4/5/4 3/6/3 5/7/5 
f 5/7/5 6/8/6 4/5/4 
f 6/9/6 5/10/5 7/11/7 
f 7/11/7 8/12/8 6/9/6 
f 8/13/8 7/14/7 2/15/2 
f 2/15/2 1/16/1 8/13/8 
f 9/17/9 10/18/10 11/19/11 
f 11/19/11 12/20/12 9/17/9 
f 13/21/13 14/22/14 15/23/15 
f 15/23/15 16/24/16 13/21/13 
f 17/25/17 18/26/18 19/27/19 
f 19/27/19 20/28/20 17/25/17 
f 21/29/21 22/30/22 23/31/23 
f 23/31/23 24/32/24 21/29/21 
f 18/33/18 25/34/25 26/35/26 
f 26/35/26 19/36/19 18/33/18 
f 27/37/27 21/38/21 24/39/24 
f 24/39/24 28/40/28 27/37/27 
f 25/41/25 29/42/29 30/43/30 
f 30/43/30 26/44/26 25/41/25 
f 31/45/31 27/46/27 28/47/28 
f 28/47/28 32/48/32 31/45/31 
s 2
f 20/49/33 30/50/34 29/51/35 
f 29/51/35 17/52/36 20/49/33 
s 1
f 22/53/22 31/54/31 32/55/32 
f 32/55/32 23/56/23 22/53/22 
f 20/57/20 19/58/19 3/3/3 
f 3/3/3 2/2/2 20/57/20 
f 24/59/24 23/60/23 1/1/1 
f 1/1/1 4/4/4 24/59/24 
f 19/61/19 26/62/26 5/7/5 
f 5/7/5 3/6/3 19/61/19 
f 28/63/28 24/64/24 4/5/4 
f 4/5/4 6/8/6 28/63/28 
f 5/10/5 26/65/26 30/66/30 
f 30/66/30 7/11/7 5/10/5 
f 32/67/32 28/68/28 6/9/6 
f 6/9/6 8/12/8 32/67/32 
s 4
f 30/69/37 20/70/38 2/71/39 
f 2/71/39 7/72/40 30/69/37 
s 1
f 23/73/23 32/74/32 8/13/8 
f 8/13/8 1/16/1 23/73/23 
f 10/18/10 9/17/9 18/33/18 
f 18/33/18 17/75/17 10/18/10 
f 13/21/13 16/24/16 22/76/22 
f 22/76/22 21/38/21 13/21/13 
f 9/17/9 12/20/12 25/34/25 
f 25/34/25 18/33/18 9/17/9 
f 14/22/14 13/21/13 21/38/21 
f 21/38/21 27/37/27 14/22/14 
f 25/34/25 12/20/12 11/19/11 
f 11/19/11 29/77/29 25/34/25 
f 15/23/15 14/22/14 27/37/27 
f 27/37/27 31/78/31 15/23/15 
f 11/19/11 10/18/10 17/75/17 
f 17/75/17 29/77/29 11/19/11 
f 16/24/16 15/23/15 31/78/31 
f 31/78/31 22/76/22 16/24/16 
f 33/79/41 34/80/41 35/81/41 
f 35/81/41 36/82/41 33/79/41 
s 2
f 36/83/42 35/84/42 37/85/42 
f 37/85/42 38/86/42 36/83/42 
s 1
f 38/87/43 37/88/43 39/89/43 
f 39/89/43 40/90/43 38/87/43 
s 2
f 40/91/44 39/92/44 34/93/44 
f 34/93/44 33/94/44 40/91/44 
s 4
f 35/95/45 34/96/45 39/97/45 
f 39/97/45 37/98/45 35/95/45 
s 1
f 41/99/46 42/100/46 43/101/46 
f 43/101/46 44/102/46 41/99/46 
f 45/103/46 46/104/46 47/105/46 
f 47/105/46 48/106/46 45/103/46 
f 49/107/46 50/108/46 46/104/46 
f 46/104/46 45/103/46 49/107/46 
f 51/109/46 52/110/46 50/108/46 
f 50/108/46 49/107/46 51/109/46 
f 48/106/46 47/105/46 52/110/46 
f 52/110/46 51/109/46 48/106/46 
s 2
f 46/111/41 41/112/41 44/113/41 
f 44/113/41 47/114/41 46/111/41 
s 4
f 50/115/42 42/116/42 41/117/42 
f 41/117/42 46/118/42 50/115/42 
s 2
f 52/119/43 43/120/43 42/121/43 
f 42/121/43 50/122/43 52/119/43 
s 4
f 47/123/44 44/124/44 43/125/44 
f 43/125/44 52/126/44 47/123/44 
f 33/127/47 36/128/47 45/103/47 
f 45/103/47 48/106/47 33/127/47 
s 8
f 36/129/48 38/130/48 49/131/48 
f 49/131/48 45/132/48 36/129/48 
s 4
f 38/133/49 40/134/49 51/135/49 
f 51/135/49 49/136/49 38/133/49 
s 8
f 40/137/50 33/127/50 48/106/50 
f 48/106/50 51/109/50 40/137/50 
s 1
f 53/138/45 54/139/45 55/140/45 
f 55/140/45 56/141/45 53/138/45 
f 57/142/46 58/143/46 59/144/46 
f 59/144/46 60/145/46 57/142/46 
s 2
f 55/146/43 57/147/43 60/148/43 
f 60/148/43 56/149/43 55/146/43 
s 4
f 54/150/44 58/151/44 57/152/44 
f 57/152/44 55/153/44 54/150/44 
s 2
f 53/154/41 59/155/41 58/156/41 
f 58/156/41 54/157/41 53/154/41 
s 4
f 56/158/42 60/159/42 59/160/42 
f 59/160/42 53/161/42 56/158/42 
s 1
f 61/162/45 62/163/45 63/164/45 
f 63/164/45 64/165/45 61/162/45 
f 65/166/46 66/167/46 67/168/46 
f 67/168/46 68/169/46 65/166/46 
s 2
f 63/170/43 65/171/43 68/172/43 
f 68/172/43 64/173/43 63/170/43 
s 4
f 62/174/44 66/175/44 65/176/44 
f 65/176/44 63/177/44 62/174/44 
s 2
f 61/178/41 67/179/41 66/180/41 
f 66/180/41 62/181/41 61/178/41 
s 4
f 64/182/42 68/183/42 67/184/42 
f 67/184/42 61/185/42 64/182/42 
s 1
f 69/186/45 70/187/45 71/188/45 
f 71/188/45 72/189/45 69/186/45 
f 73/190/46 74/191/46 35/192/46 
f 35/192/46 75/193/46 73/190/46 
s 2
f 71/194/43 73/195/43 75/196/43 
f 75/196/43 72/197/43 71/194/43 
s 4
f 70/198/44 74/199/44 73/200/44 
f 73/200/44 71/201/44 70/198/44 
s 2
f 69/202/41 35/203/41 74/204/41 
f 74/204/41 70/205/41 69/202/41 
s 4
f 72/206/42 75/207/42 35/208/42 
f 35/208/42 69/209/42 72/206/42 
s 1
f 76/210/45 77/211/45 78/212/45 
f 78/212/45 79/213/45 76/210/45 
f 80/214/46 81/215/46 82/216/46 
f 82/216/46 83/217/46 80/214/46 
s 2
f 78/218/43 80/219/43 83/220/43 
f 83/220/43 79/221/43 78/218/43 
s 4
f 77/222/44 81/223/44 80/224/44 
f 80/224/44 78/225/44 77/222/44 
s 2
f 76/226/41 82/227/41 81/228/41 
f 81/228/41 77/229/41 76/226/41 
s 4
f 79/230/42 83/231/42 82/232/42 
f 82/232/42 76/233/42 79/230/42 
# 144 faces

#
